HIERARCHY
ROOT Hips
{
	OFFSET 0.000000 103.266502 0.000000
	CHANNELS 6 Xposition Yposition Zposition Xrotation Yrotation Zrotation 
	JOINT Spine
	{
		OFFSET -0.002400 12.777504 0.315300
		CHANNELS 3 Xrotation Yrotation Zrotation
		JOINT Spine1
		{
			OFFSET -0.002067 5.816869 0.032633
			CHANNELS 3 Xrotation Yrotation Zrotation
			JOINT Spine1_split
			{
				OFFSET -0.002067 5.816869 0.032633
				CHANNELS 3 Xrotation Yrotation Zrotation
				JOINT Spine2
				{
					OFFSET -0.002067 5.816869 0.032633
					CHANNELS 3 Xrotation Yrotation Zrotation
					JOINT Neck
					{
						OFFSET -0.003700 21.199493 -0.826900
						CHANNELS 3 Xrotation Yrotation Zrotation
						JOINT Head
						{
							OFFSET 0.000000 20.442200 4.834800
							CHANNELS 3 Xrotation Yrotation Zrotation
							JOINT HeadTop_End
							{
								OFFSET 0.000000 34.668396 4.968400
								CHANNELS 3 Xrotation Yrotation Zrotation
								End Site
								{
									OFFSET 0.000000 0.000000 0.000000
								}
							}
						}
					}
					JOINT LeftShoulder
					{
						OFFSET 3.288150 8.794197 -1.372250
						CHANNELS 3 Xrotation Yrotation Zrotation
						JOINT LeftShoulder_split
						{
							OFFSET 3.288150 8.794197 -1.372250
							CHANNELS 3 Xrotation Yrotation Zrotation
							JOINT LeftArm
							{
								OFFSET 11.953299 -2.279007 -0.146200
								CHANNELS 3 Xrotation Yrotation Zrotation
								JOINT LeftForeArm
								{
									OFFSET 18.448900 0.000000 0.000000
									CHANNELS 3 Xrotation Yrotation Zrotation
									JOINT LeftHand
									{
										OFFSET 29.527798 0.000000 0.000000
										CHANNELS 3 Xrotation Yrotation Zrotation
										JOINT LeftHandThumb1
										{
											OFFSET 10.739754 -2.369614 9.225399
											CHANNELS 3 Xrotation Yrotation Zrotation
											JOINT LeftHandThumb2
											{
												OFFSET 4.926170 -2.844131 2.844125
												CHANNELS 3 Xrotation Yrotation Zrotation
												JOINT LeftHandThumb3
												{
													OFFSET 4.614891 -2.664413 2.664409
													CHANNELS 3 Xrotation Yrotation Zrotation
													JOINT LeftHandThumb4
													{
														OFFSET 4.432465 -2.559082 2.559083
														CHANNELS 3 Xrotation Yrotation Zrotation
														End Site
														{
															OFFSET 0.000000 0.000000 0.000000
														}
													}
												}
											}
										}
										JOINT LeftHandIndex1
										{
											OFFSET 26.467674 0.187653 6.405298
											CHANNELS 3 Xrotation Yrotation Zrotation
											JOINT LeftHandIndex2
											{
												OFFSET 8.792900 0.000000 0.000000
												CHANNELS 3 Xrotation Yrotation Zrotation
												JOINT LeftHandIndex3
												{
													OFFSET 10.075203 0.000000 0.000000
													CHANNELS 3 Xrotation Yrotation Zrotation
													End Site
													{
														OFFSET 0.000000 0.000000 0.000000
													}
												}
											}
										}
										JOINT LeftHandMiddle1
										{
											OFFSET 25.764404 0.000000 0.000000
											CHANNELS 3 Xrotation Yrotation Zrotation
											JOINT LeftHandMiddle2
											{
												OFFSET 9.393974 0.000000 0.000000
												CHANNELS 3 Xrotation Yrotation Zrotation
												JOINT LeftHandMiddle3
												{
													OFFSET 10.771950 0.000000 0.000000
													CHANNELS 3 Xrotation Yrotation Zrotation
													End Site
													{
														OFFSET 0.000000 0.000000 0.000000
													}
												}
											}
										}
										JOINT LeftHandRing1
										{
											OFFSET 24.660927 0.144547 -6.225808
											CHANNELS 3 Xrotation Yrotation Zrotation
											JOINT LeftHandRing2
											{
												OFFSET 9.393799 0.000000 0.000000
												CHANNELS 3 Xrotation Yrotation Zrotation
												JOINT LeftHandRing3
												{
													OFFSET 9.928497 0.000000 0.000000
													CHANNELS 3 Xrotation Yrotation Zrotation
													End Site
													{
														OFFSET 0.000000 0.000000 0.000000
													}
												}
											}
										}
										JOINT LeftHandPinky1
										{
											OFFSET 23.655350 0.125290 -12.815412
											CHANNELS 3 Xrotation Yrotation Zrotation
											JOINT LeftHandPinky2
											{
												OFFSET 8.425102 0.000000 0.000000
												CHANNELS 3 Xrotation Yrotation Zrotation
												JOINT LeftHandPinky3
												{
													OFFSET 8.147003 0.000000 0.000000
													CHANNELS 3 Xrotation Yrotation Zrotation
													End Site
													{
														OFFSET 0.000000 0.000000 0.000000
													}
												}
											}
										}
									}
								}
							}
						}
					}
					JOINT RightShoulder
					{
						OFFSET -3.249400 8.794197 -1.372250
						CHANNELS 3 Xrotation Yrotation Zrotation
						JOINT RightShoulder_split
						{
							OFFSET -3.249400 8.794197 -1.372250
							CHANNELS 3 Xrotation Yrotation Zrotation
							JOINT RightArm
							{
								OFFSET -11.953299 -2.279007 -0.146200
								CHANNELS 3 Xrotation Yrotation Zrotation
								JOINT RightForeArm
								{
									OFFSET -18.448900 0.000000 0.000000
									CHANNELS 3 Xrotation Yrotation Zrotation
									JOINT RightHand
									{
										OFFSET -29.527802 0.000000 0.000000
										CHANNELS 3 Xrotation Yrotation Zrotation
										JOINT RightHandThumb1
										{
											OFFSET -10.739754 -2.369614 9.225399
											CHANNELS 3 Xrotation Yrotation Zrotation
											JOINT RightHandThumb2
											{
												OFFSET -4.926170 -2.844131 2.844125
												CHANNELS 3 Xrotation Yrotation Zrotation
												JOINT RightHandThumb3
												{
													OFFSET -4.614891 -2.664413 2.664409
													CHANNELS 3 Xrotation Yrotation Zrotation
													JOINT RightHandThumb4
													{
														OFFSET -4.432465 -2.559082 2.559083
														CHANNELS 3 Xrotation Yrotation Zrotation
														End Site
														{
															OFFSET 0.000000 0.000000 0.000000
														}
													}
												}
											}
										}
										JOINT RightHandIndex1
										{
											OFFSET -26.467674 0.187653 6.405298
											CHANNELS 3 Xrotation Yrotation Zrotation
											JOINT RightHandIndex2
											{
												OFFSET -8.792900 0.000000 0.000000
												CHANNELS 3 Xrotation Yrotation Zrotation
												JOINT RightHandIndex3
												{
													OFFSET -10.075203 0.000000 0.000000
													CHANNELS 3 Xrotation Yrotation Zrotation
													End Site
													{
														OFFSET 0.000000 0.000000 0.000000
													}
												}
											}
										}
										JOINT RightHandMiddle1
										{
											OFFSET -25.764404 0.000000 0.000000
											CHANNELS 3 Xrotation Yrotation Zrotation
											JOINT RightHandMiddle2
											{
												OFFSET -9.393974 0.000000 0.000000
												CHANNELS 3 Xrotation Yrotation Zrotation
												JOINT RightHandMiddle3
												{
													OFFSET -10.771950 0.000000 0.000000
													CHANNELS 3 Xrotation Yrotation Zrotation
													End Site
													{
														OFFSET 0.000000 0.000000 0.000000
													}
												}
											}
										}
										JOINT RightHandRing1
										{
											OFFSET -24.660927 0.144547 -6.225808
											CHANNELS 3 Xrotation Yrotation Zrotation
											JOINT RightHandRing2
											{
												OFFSET -9.393799 0.000000 0.000000
												CHANNELS 3 Xrotation Yrotation Zrotation
												JOINT RightHandRing3
												{
													OFFSET -9.928497 0.000000 0.000000
													CHANNELS 3 Xrotation Yrotation Zrotation
													End Site
													{
														OFFSET 0.000000 0.000000 0.000000
													}
												}
											}
										}
										JOINT RightHandPinky1
										{
											OFFSET -23.655350 0.125290 -12.815412
											CHANNELS 3 Xrotation Yrotation Zrotation
											JOINT RightHandPinky2
											{
												OFFSET -8.425102 0.000000 0.000000
												CHANNELS 3 Xrotation Yrotation Zrotation
												JOINT RightHandPinky3
												{
													OFFSET -8.147003 0.000000 0.000000
													CHANNELS 3 Xrotation Yrotation Zrotation
													End Site
													{
														OFFSET 0.000000 0.000000 0.000000
													}
												}
											}
										}
									}
								}
							}
						}
					}
				}
			}
		}
	}
	JOINT LeftUpLeg
	{
		OFFSET 11.394100 -6.187798 -0.413800
		CHANNELS 3 Xrotation Yrotation Zrotation
		JOINT LeftLeg
		{
			OFFSET 0.430247 -32.302673 3.732800
			CHANNELS 3 Xrotation Yrotation Zrotation
			JOINT LeftFoot
			{
				OFFSET -0.430247 -48.264931 -6.423300
				CHANNELS 3 Xrotation Yrotation Zrotation
				JOINT LeftToeBase
				{
					OFFSET 4.230900 -16.068199 23.438400
					CHANNELS 3 Xrotation Yrotation Zrotation
					JOINT LeftToe_End
					{
						OFFSET 4.510700 0.695400 19.974600
						CHANNELS 3 Xrotation Yrotation Zrotation
						End Site
						{
							OFFSET 0.000000 0.000000 0.000000
						}
					}
				}
			}
		}
	}
	JOINT RightUpLeg
	{
		OFFSET -11.333700 -6.187798 -0.413800
		CHANNELS 3 Xrotation Yrotation Zrotation
		JOINT RightLeg
		{
			OFFSET -0.430392 -32.302628 3.733000
			CHANNELS 3 Xrotation Yrotation Zrotation
			JOINT RightFoot
			{
				OFFSET 0.430392 -48.264973 -6.423500
				CHANNELS 3 Xrotation Yrotation Zrotation
				JOINT RightToeBase
				{
					OFFSET -4.230900 -16.068199 23.438400
					CHANNELS 3 Xrotation Yrotation Zrotation
					JOINT RightToe_End
					{
						OFFSET -4.510700 0.695400 19.974600
						CHANNELS 3 Xrotation Yrotation Zrotation
						End Site
						{
							OFFSET 0.000000 0.000000 0.000000
						}
					}
				}
			}
		}
	}
}
MOTION
Frames: 6
Frame Time: 0.016667
24.813328 93.506447 5.307688 154.110815 -64.003968 159.918375 10.366597 -2.924706 2.056311 5.441870 -1.990655 -3.512894 0.000000 0.000000 0.000000 -3.218469 -5.241833 -2.484899 6.043339 13.386882 -0.965035 -12.384981 14.668034 -5.260453 0.000002 0.000000 -0.000000 -1.837975 -14.467485 -4.296793 0.000000 0.000000 0.000000 -24.431879 -9.271206 -47.099236 -14.226255 -27.309268 -17.570315 3.474902 -7.760244 6.842565 20.212989 -4.649827 10.411170 3.371815 17.053174 -9.307535 9.278259 14.738788 -1.340738 -0.000001 -0.000001 0.000001 -0.754223 0.208577 -13.245165 0.030476 -0.759499 -17.420379 -0.000002 0.000002 0.000001 2.446918 2.844468 -23.035252 -0.021030 -2.027855 -31.425174 0.000001 -0.000003 -0.000001 0.752468 4.505540 -30.750242 -0.981904 -1.227426 -35.970939 0.000001 0.000000 -0.000000 -1.632805 3.694664 -37.232731 -0.950047 -0.779043 -32.064569 0.000002 -0.000001 0.000000 -5.499243 24.268043 2.019078 0.000000 0.000000 0.000000 -13.675015 -20.288505 57.835160 13.715978 34.549440 -4.170649 13.832402 22.666567 12.809460 55.149570 18.649522 -29.698308 -0.442557 -14.180560 7.313157 21.666969 -29.244486 9.142360 0.000003 -0.000000 0.000001 5.673398 7.585009 36.844175 1.050426 3.824519 68.900257 -0.000002 -0.000001 -0.000001 -0.125702 1.886100 45.000773 -1.169027 3.204658 68.417677 -0.000004 -0.000001 0.000001 -5.312007 1.216645 58.508787 -0.745217 1.667564 48.011275 0.000001 -0.000001 0.000000 -7.756805 -9.376456 47.263994 -0.526050 1.541594 45.600515 -0.000003 -0.000000 0.000000 -62.667450 39.256666 57.726703 39.335493 -10.794583 -4.738649 6.138276 7.626191 -0.353647 -0.495548 11.592373 -9.275470 0.000000 -0.000002 0.000000 -46.832664 -12.488468 -29.115884 42.961723 -5.829042 5.105439 -6.369789 -2.562470 9.132342 0.624354 3.639668 0.391536 0.000000 0.000002 -0.000000 
24.870464 93.438797 4.674794 154.801812 -62.619912 160.710116 10.476697 -2.906422 2.036405 5.299434 -1.863430 -3.688207 0.000000 0.000000 0.000000 -3.740330 -4.710123 -2.529085 6.087837 13.825682 -1.303473 -12.333077 14.943272 -5.101976 -0.000001 -0.000000 -0.000000 -1.833832 -14.445311 -4.259443 0.000000 0.000000 0.000000 -24.484056 -9.447719 -47.266760 -14.703154 -28.284800 -17.623225 3.654413 -8.621941 6.264434 20.213253 -4.649923 10.411317 3.371617 17.053300 -9.307551 9.278330 14.738742 -1.340773 -0.000001 0.000001 0.000001 -0.754213 0.208558 -13.245169 0.030189 -0.759584 -17.420336 -0.000001 -0.000002 -0.000001 2.446877 2.844494 -23.035250 -0.021105 -2.027787 -31.425178 -0.000000 0.000001 0.000001 0.752467 4.505423 -30.750260 -0.981757 -1.227649 -35.970956 0.000003 -0.000003 -0.000001 -1.632789 3.694683 -37.232731 -0.949873 -0.779170 -32.064593 0.000000 0.000001 0.000003 -5.518092 24.192595 2.050980 0.000000 0.000000 0.000000 -13.471659 -20.142002 57.616628 14.645645 34.292512 -4.668594 13.381600 22.766226 12.759871 55.149574 18.649519 -29.698301 -0.442557 -14.180560 7.313154 21.666962 -29.244486 9.142367 -0.000001 0.000003 -0.000000 5.673398 7.585007 36.844171 1.050424 3.824517 68.900257 0.000002 -0.000000 -0.000001 -0.125706 1.886098 45.000773 -1.169024 3.204656 68.417670 0.000002 -0.000001 0.000000 -5.312009 1.216643 58.508794 -0.745212 1.667569 48.011271 0.000001 0.000000 0.000000 -7.756806 -9.376455 47.264001 -0.526050 1.541596 45.600518 -0.000001 0.000001 0.000002 -64.253721 38.351085 58.987911 40.185879 -12.468241 -4.464038 6.800129 6.845088 1.354627 -0.203515 12.587397 -10.666454 -0.000000 -0.000001 0.000000 -47.439168 -12.284397 -28.438729 43.461266 -5.469082 5.199062 -6.868130 -2.006752 8.498897 0.957897 3.691106 0.220883 0.000000 0.000000 -0.000000 
24.895958 93.366844 4.055904 155.428454 -61.304281 161.465330 10.537012 -2.876573 1.997725 5.170760 -1.727741 -3.885303 0.000000 0.000000 0.000000 -4.258840 -4.169629 -2.589059 6.369391 14.108985 -1.231392 -12.373163 15.396894 -5.297319 0.000001 -0.000000 -0.000000 -1.831037 -14.578228 -4.183429 0.000000 0.000000 0.000000 -24.473703 -9.331603 -47.461161 -15.137511 -29.354872 -17.695169 3.798894 -9.351021 5.643276 20.213506 -4.650034 10.411469 3.371479 17.053444 -9.307614 9.278382 14.738710 -1.340723 0.000000 0.000001 0.000001 -0.754163 0.208572 -13.245178 0.029914 -0.759677 -17.420355 0.000000 0.000000 0.000001 2.446831 2.844512 -23.035252 -0.021157 -2.027674 -31.425198 -0.000001 0.000004 0.000002 0.752480 4.505313 -30.750249 -0.981617 -1.227886 -35.970918 -0.000000 0.000001 -0.000000 -1.632803 3.694674 -37.232755 -0.949718 -0.779218 -32.064586 -0.000003 -0.000001 0.000001 -5.543630 24.107504 2.123106 0.000000 0.000000 0.000000 -13.173083 -20.156844 57.392311 15.493941 34.170999 -5.133773 12.981428 22.876447 12.755364 55.149570 18.649521 -29.698298 -0.442555 -14.180557 7.313155 21.666967 -29.244483 9.142362 0.000001 0.000001 0.000000 5.673401 7.585009 36.844175 1.050424 3.824515 68.900257 0.000001 0.000001 -0.000000 -0.125706 1.886096 45.000773 -1.169025 3.204660 68.417677 -0.000002 -0.000002 0.000001 -5.312011 1.216643 58.508794 -0.745216 1.667566 48.011271 -0.000004 -0.000001 0.000001 -7.756803 -9.376457 47.263997 -0.526050 1.541592 45.600518 0.000001 0.000000 0.000001 -65.572480 37.499842 59.935361 40.766804 -13.962038 -4.161590 7.544479 6.089369 2.943512 0.298214 13.288825 -11.910759 -0.000000 -0.000002 0.000000 -47.978964 -12.065688 -27.796119 43.961956 -5.138990 5.252153 -7.367823 -1.481326 7.939107 1.247848 3.735535 0.058303 -0.000000 0.000000 0.000000 
24.901649 93.287590 3.372108 155.978148 -60.028900 162.216556 10.559906 -2.844689 1.943574 5.077493 -1.603202 -4.097641 0.000000 0.000000 0.000000 -4.749400 -3.643001 -2.662461 6.469092 14.668533 -1.949848 -12.456452 15.384865 -4.709118 -0.000000 0.000000 0.000000 -1.821998 -14.611914 -4.119285 0.000000 0.000000 0.000000 -24.396495 -9.365099 -47.588011 -15.736303 -30.089944 -17.677846 3.879483 -10.256077 4.806046 20.213730 -4.650127 10.411630 3.371290 17.053570 -9.307690 9.278475 14.738652 -1.340686 0.000001 0.000001 0.000001 -0.754146 0.208548 -13.245176 0.029629 -0.759760 -17.420345 0.000002 -0.000003 -0.000002 2.446772 2.844551 -23.035236 -0.021237 -2.027538 -31.425181 -0.000000 0.000001 -0.000001 0.752448 4.505233 -30.750229 -0.981485 -1.228059 -35.970904 -0.000000 -0.000000 -0.000002 -1.632795 3.694648 -37.232737 -0.949588 -0.779288 -32.064576 0.000001 -0.000002 0.000000 -5.569915 24.018592 2.202748 0.000000 0.000000 0.000000 -12.836168 -20.262262 57.156437 16.241541 34.139628 -5.554854 12.609193 23.011146 12.781494 55.149574 18.649521 -29.698301 -0.442556 -14.180557 7.313151 21.666965 -29.244486 9.142364 0.000002 -0.000000 0.000002 5.673402 7.585008 36.844175 1.050422 3.824517 68.900250 -0.000002 -0.000002 0.000001 -0.125702 1.886102 45.000766 -1.169023 3.204660 68.417677 -0.000000 0.000001 -0.000000 -5.312007 1.216647 58.508794 -0.745217 1.667564 48.011275 0.000002 -0.000001 0.000001 -7.756804 -9.376456 47.263997 -0.526051 1.541594 45.600518 0.000001 0.000001 0.000002 -66.545618 36.797142 60.518181 40.939717 -15.233864 -3.871421 8.338353 5.310155 4.306088 1.086206 13.678888 -12.987574 -0.000000 -0.000001 -0.000000 -48.506286 -11.813928 -27.172557 44.537273 -4.838050 5.255323 -7.936626 -0.974496 7.416181 1.508171 3.776581 -0.046737 0.000000 0.000002 -0.000000 
24.858849 93.207413 2.709507 156.480850 -58.841055 162.947973 10.573416 -2.832864 1.887014 5.035986 -1.495796 -4.316925 0.000000 0.000000 0.000000 -5.195334 -3.142235 -2.749178 6.328195 15.254715 -2.740314 -12.369772 15.288065 -3.976919 0.000001 -0.000000 -0.000000 -1.812256 -14.622950 -4.069556 0.000000 0.000000 0.000000 -24.236674 -9.343727 -47.660247 -16.237077 -30.888810 -17.606676 3.734400 -11.098191 3.912864 20.213999 -4.650225 10.411759 3.371062 17.053724 -9.307740 9.278582 14.738566 -1.340645 0.000001 0.000002 -0.000003 -0.754097 0.208544 -13.245165 0.029410 -0.759817 -17.420324 0.000000 -0.000001 -0.000001 2.446699 2.844618 -23.035254 -0.021255 -2.027409 -31.425209 -0.000001 -0.000003 -0.000001 0.752481 4.505197 -30.750229 -0.981339 -1.228249 -35.970921 0.000000 -0.000003 -0.000004 -1.632751 3.694692 -37.232741 -0.949484 -0.779371 -32.064596 -0.000001 0.000000 0.000002 -5.574964 23.957886 2.204161 0.000000 0.000000 0.000000 -12.495537 -20.437464 56.950974 16.891053 34.094740 -5.909320 12.213305 23.228758 12.778850 55.149570 18.649519 -29.698301 -0.442554 -14.180559 7.313155 21.666969 -29.244486 9.142364 0.000001 -0.000000 -0.000001 5.673402 7.585006 36.844175 1.050422 3.824515 68.900257 0.000001 0.000000 0.000002 -0.125704 1.886098 45.000770 -1.169023 3.204658 68.417677 -0.000001 -0.000001 0.000002 -5.312009 1.216641 58.508787 -0.745216 1.667567 48.011271 0.000001 -0.000001 0.000001 -7.756807 -9.376456 47.263997 -0.526050 1.541594 45.600518 -0.000001 0.000000 0.000000 -67.278982 36.186957 60.822165 40.855104 -16.344747 -3.607829 9.137451 4.527500 5.539759 2.064375 13.748036 -13.893333 -0.000000 -0.000002 0.000001 -48.947799 -11.544970 -26.602023 45.102492 -4.568561 5.219939 -8.507037 -0.508121 6.981512 1.718391 3.812772 -0.072935 0.000000 -0.000002 -0.000000 
24.755844 93.154564 2.143208 156.969577 -57.721881 163.652535 10.594331 -2.839569 1.828774 5.040229 -1.410214 -4.541929 0.000000 0.000000 0.000000 -5.600353 -2.671738 -2.845724 6.274324 15.581868 -2.810547 -12.220507 15.590870 -3.903975 -0.000000 0.000000 0.000000 -1.827872 -14.708447 -4.103369 0.000000 0.000000 0.000000 -23.999876 -9.023751 -47.692349 -16.439712 -32.034236 -17.488027 3.363776 -11.650460 3.103242 20.214196 -4.650337 10.411899 3.370836 17.053910 -9.307806 9.278721 14.738493 -1.340611 -0.000000 0.000000 -0.000001 -0.754107 0.208529 -13.245185 0.029145 -0.759880 -17.420327 0.000002 0.000000 -0.000000 2.446535 2.844670 -23.035240 -0.021241 -2.027228 -31.425161 0.000001 0.000002 0.000001 0.752461 4.505166 -30.750246 -0.981253 -1.228368 -35.970932 0.000001 -0.000002 -0.000001 -1.632781 3.694684 -37.232741 -0.949416 -0.779435 -32.064566 -0.000000 -0.000001 0.000001 -5.560452 23.921599 2.133793 0.000000 0.000000 0.000000 -12.147565 -20.685771 56.766122 17.444310 34.055562 -6.200082 11.798828 23.503612 12.756259 55.149574 18.649522 -29.698301 -0.442556 -14.180557 7.313154 21.666965 -29.244486 9.142357 -0.000002 0.000001 0.000001 5.673399 7.585005 36.844178 1.050425 3.824515 68.900257 -0.000001 -0.000000 -0.000001 -0.125705 1.886098 45.000773 -1.169025 3.204660 68.417677 -0.000001 -0.000001 0.000001 -5.312007 1.216643 58.508794 -0.745217 1.667566 48.011271 -0.000001 -0.000002 0.000001 -7.756804 -9.376457 47.263997 -0.526052 1.541593 45.600515 0.000000 0.000000 0.000002 -67.668986 35.634576 60.812965 40.535574 -17.239449 -3.397723 9.933714 3.917297 6.564852 3.046985 13.429499 -14.524628 0.000000 -0.000003 0.000000 -49.254851 -11.307149 -26.101611 45.519109 -4.296968 5.167847 -8.994259 -0.063497 6.639135 1.916593 3.836785 -0.081876 0.000000 -0.000002 -0.000000 
